<svg width="16" height="9" viewBox="0 0 16 9" fill="none" xmlns="http://www.w3.org/2000/svg">
<path d="M15.0096 0.165988C15.2243 -0.0441348 15.5859 -0.05644 15.8172 0.138645C16.0228 0.312092 16.0559 0.591388 15.91 0.798801L15.8475 0.872043L8.41876 8.14157C8.20405 8.35169 7.84241 8.36397 7.61115 8.16892C7.40558 7.99547 7.37244 7.71617 7.51837 7.50876L7.58087 7.43552L15.0096 0.165988ZM11.0115 0.164035C11.2274 -0.0451202 11.5889 -0.0554942 11.8192 0.140598C12.0237 0.314925 12.056 0.593994 11.909 0.800754L11.8455 0.873996L4.3465 8.14353C4.14696 8.33696 3.82465 8.35988 3.5965 8.21091L3.51544 8.14646L0.157045 4.9404C-0.0601453 4.73268 -0.0508902 4.4046 0.177552 4.207C0.380737 4.0313 0.689198 4.01794 0.908021 4.16306L0.98517 4.22458L3.92658 7.0322L11.0115 0.164035Z" fill="white"/>
</svg>
